<svg width="48" height="49" fill="none" xmlns="http://www.w3.org/2000/svg"><g filter="url(#filter0_d)" fill="#fff"><rect x="11" y="8.899" width="24" height="24" rx="12"/><path d="M22.62 17.264l.38.447.38-.447a3.692 3.692 0 012.77-1.287c1.88 0 3.35 1.47 3.35 3.35 0 1.159-.517 2.25-1.528 3.485-1.016 1.243-2.48 2.572-4.293 4.215v.001a1.02 1.02 0 01-1.358.006c-1.813-1.647-3.277-2.977-4.293-4.22-1.011-1.238-1.528-2.328-1.528-3.487 0-1.88 1.47-3.35 3.35-3.35 1.067 0 2.098.499 2.77 1.287z" stroke="#767D86"/></g><defs><filter id="filter0_d" x="0" y=".899" width="48" height="48" filterUnits="userSpaceOnUse" color-interpolation-filters="sRGB"><feFlood flood-opacity="0" result="BackgroundImageFix"/><feColorMatrix in="SourceAlpha" values="0 0 0 0 0 0 0 0 0 0 0 0 0 0 0 0 0 0 127 0" result="hardAlpha"/><feOffset dx="1" dy="4"/><feGaussianBlur stdDeviation="6"/><feColorMatrix values="0 0 0 0 0 0 0 0 0 0 0 0 0 0 0 0 0 0 0.1 0"/><feBlend in2="BackgroundImageFix" result="effect1_dropShadow"/><feBlend in="SourceGraphic" in2="effect1_dropShadow" result="shape"/></filter></defs></svg>