<svg width="48" height="49" viewBox="0 0 48 49" fill="none" xmlns="http://www.w3.org/2000/svg">
<g filter="url(#filter0_d)">
<rect x="11" y="8.89935" width="24" height="24" rx="12" fill="white"/>
<path d="M22.6193 17.264L23 17.7111L23.3807 17.264C24.0519 16.4758 25.0834 15.9769 26.15 15.9769C28.0299 15.9769 29.5 17.447 29.5 19.3269C29.5 20.4856 28.9834 21.5761 27.9724 22.8122C26.9556 24.0553 25.4917 25.3839 23.6791 27.0275L23.6784 27.0281C23.2966 27.3757 22.701 27.3775 22.3206 27.0342C20.5082 25.3873 19.0445 24.0571 18.0278 22.8132C17.0166 21.5761 16.5 20.4856 16.5 19.3269C16.5 17.447 17.9701 15.9769 19.85 15.9769C20.9166 15.9769 21.9481 16.4758 22.6193 17.264Z" fill="white" stroke="#767D86"/>
</g>
<defs>
<filter id="filter0_d" x="0" y="0.899353" width="48" height="48" filterUnits="userSpaceOnUse" color-interpolation-filters="sRGB">
<feFlood flood-opacity="0" result="BackgroundImageFix"/>
<feColorMatrix in="SourceAlpha" type="matrix" values="0 0 0 0 0 0 0 0 0 0 0 0 0 0 0 0 0 0 127 0" result="hardAlpha"/>
<feOffset dx="1" dy="4"/>
<feGaussianBlur stdDeviation="6"/>
<feColorMatrix type="matrix" values="0 0 0 0 0 0 0 0 0 0 0 0 0 0 0 0 0 0 0.1 0"/>
<feBlend mode="normal" in2="BackgroundImageFix" result="effect1_dropShadow"/>
<feBlend mode="normal" in="SourceGraphic" in2="effect1_dropShadow" result="shape"/>
</filter>
</defs>
</svg>
