<svg width="24" height="24" fill="none" xmlns="http://www.w3.org/2000/svg" style=""><rect id="backgroundrect" width="100%" height="100%" x="0" y="0" fill="none" stroke="none"/>

<defs>
<filter id="filter0_d" x="0" y="0.89935302734375" width="48" height="48" filterUnits="userSpaceOnUse" color-interpolation-filters="sRGB">
<feFlood flood-opacity="0" result="BackgroundImageFix"/>
<feColorMatrix in="SourceAlpha" type="matrix" values="0 0 0 0 0 0 0 0 0 0 0 0 0 0 0 0 0 0 127 0" result="hardAlpha"/>
<feOffset dx="1" dy="4"/>
<feGaussianBlur stdDeviation="6"/>
<feColorMatrix type="matrix" values="0 0 0 0 0 0 0 0 0 0 0 0 0 0 0 0 0 0 0.1 0"/>
<feBlend mode="normal" in2="BackgroundImageFix" result="effect1_dropShadow"/>
<feBlend mode="normal" in="SourceGraphic" in2="effect1_dropShadow" result="shape"/>
</filter>
</defs>
<g class="currentLayer" style=""><title>Layer 1</title><g filter="url(#filter0_d)" id="svg_1" class="">
<rect x="0" y="0" width="24" height="24" rx="12" fill="white" id="svg_2"/>
<path d="M18.972200393676758,11.841349601745605 C18.42329978942871,10.421549797058105 17.470399856567383,9.193650245666504 16.231300354003906,8.309550285339355 C14.99220085144043,7.425349235534668 13.521099090576172,6.923749923706055 12,6.866549491882324 C10.478900909423828,6.923749923706055 9.00779914855957,7.425349235534668 7.768699645996094,8.309550285339355 C6.529600143432617,9.193650245666504 5.576700210571289,10.421549797058105 5.027799606323242,11.841349601745605 C4.990699768066406,11.94385051727295 4.990699768066406,12.05614948272705 5.027799606323242,12.158650398254395 C5.576700210571289,13.578450202941895 6.529600143432617,14.806349754333496 7.768699645996094,15.690449714660645 C9.00779914855957,16.574549674987793 10.478900909423828,17.07624912261963 12,17.133450508117676 C13.521099090576172,17.07624912261963 14.99220085144043,16.574549674987793 16.231300354003906,15.690449714660645 C17.470399856567383,14.806349754333496 18.42329978942871,13.578450202941895 18.972200393676758,12.158650398254395 C19.009300231933594,12.05614948272705 19.009300231933594,11.94385051727295 18.972200393676758,11.841349601745605 V11.841349601745605 zM12,15.03345012664795 C11.399999618530273,15.03345012664795 10.813600540161133,14.855549812316895 10.314699172973633,14.522149085998535 C9.815900802612305,14.188849449157715 9.427099227905273,13.715149879455566 9.197500228881836,13.160849571228027 C8.967899322509766,12.606549263000488 8.907800674438477,11.996649742126465 9.024900436401367,11.408150672912598 C9.141899108886719,10.819750785827637 9.43079948425293,10.279250144958496 9.854999542236328,9.855050086975098 C10.279300689697266,9.4308500289917 10.819799423217773,9.141949653625488 11.408199310302734,9.024849891662598 C11.996599197387695,8.907849311828613 12.606599807739258,8.967850685119629 13.16080093383789,9.197449684143066 C13.715099334716797,9.427050590515137 14.188899993896484,9.815850257873535 14.522199630737305,10.314749717712402 C14.855499267578125,10.813549995422363 15.03339958190918,11.400050163269043 15.03339958190918,11.99994945526123 C15.03219985961914,12.804150581359863 14.712200164794922,13.574950218200684 14.143600463867188,14.143549919128418 C13.575000762939453,14.712149620056152 12.804100036621094,15.032149314880371 12,15.03345012664795 V15.03345012664795 z" stroke="#767D86" id="svg_3"/>
</g></g></svg>