<svg width="24" height="24" fill="none" xmlns="http://www.w3.org/2000/svg"><rect id="backgroundrect" width="100%" height="100%" x="0" y="0" fill="none" stroke="none" style="" class=""/>

<defs>
<filter id="filter0_d" x="0" y="0.89935302734375" width="48" height="48" filterUnits="userSpaceOnUse" color-interpolation-filters="sRGB">
<feFlood flood-opacity="0" result="BackgroundImageFix"/>
<feColorMatrix in="SourceAlpha" type="matrix" values="0 0 0 0 0 0 0 0 0 0 0 0 0 0 0 0 0 0 127 0" result="hardAlpha"/>
<feOffset dx="1" dy="4"/>
<feGaussianBlur stdDeviation="6"/>
<feColorMatrix type="matrix" values="0 0 0 0 0 0 0 0 0 0 0 0 0 0 0 0 0 0 0.1 0"/>
<feBlend mode="normal" in2="BackgroundImageFix" result="effect1_dropShadow"/>
<feBlend mode="normal" in="SourceGraphic" in2="effect1_dropShadow" result="shape"/>
</filter>
</defs>
<g class="currentLayer" style=""><title>Layer 1</title><g filter="url(#filter0_d)" id="svg_1" class="">
<rect x="0" y="0.7874015567467718" width="24" height="22.42519631995509" rx="12" fill="white" id="svg_2"/>
<path d="M11.619300842285156,8.603190064430237 L12,9.020951867103577 L12.380699157714844,8.603190064430237 C13.051900863647461,7.866708397865295 14.08340072631836,7.400544762611389 15.149999618530273,7.400544762611389 C17.02989959716797,7.400544762611389 18.5,8.774182915687561 18.5,10.530728936195374 C18.5,11.61339819431305 17.983400344848633,12.63234293460846 16.972400665283203,13.78733503818512 C15.95560073852539,14.948867440223694 14.49169921875,16.19028627872467 12.679100036621094,17.726041436195374 L12.678400039672852,17.726600289344788 C12.296600341796875,18.051389336586 11.701000213623047,18.05307161808014 11.320600509643555,17.73229944705963 C9.508199691772461,16.193463921546936 8.044500350952148,14.950549721717834 7.027799606323242,13.788268685340881 C6.016599655151367,12.63234293460846 5.5,11.61339819431305 5.5,10.530728936195374 C5.5,8.774182915687561 6.970100402832031,7.400544762611389 8.850000381469727,7.400544762611389 C9.91659927368164,7.400544762611389 10.948099136352539,7.866708397865295 11.619300842285156,8.603190064430237 z" fill="white" stroke="#767D86" id="svg_3"/>
</g></g></svg>