<svg width="25" height="24" fill="none" xmlns="http://www.w3.org/2000/svg" style=""><rect id="backgroundrect" width="100%" height="100%" x="0" y="0" fill="none" stroke="none"/>

<defs>
<filter id="filter0_d" x="0" y="0.89935302734375" width="49" height="48" filterUnits="userSpaceOnUse" color-interpolation-filters="sRGB">
<feFlood flood-opacity="0" result="BackgroundImageFix"/>
<feColorMatrix in="SourceAlpha" type="matrix" values="0 0 0 0 0 0 0 0 0 0 0 0 0 0 0 0 0 0 127 0" result="hardAlpha"/>
<feOffset dx="1" dy="4"/>
<feGaussianBlur stdDeviation="6"/>
<feColorMatrix type="matrix" values="0 0 0 0 0 0 0 0 0 0 0 0 0 0 0 0 0 0 0.1 0"/>
<feBlend mode="normal" in2="BackgroundImageFix" result="effect1_dropShadow"/>
<feBlend mode="normal" in="SourceGraphic" in2="effect1_dropShadow" result="shape"/>
</filter>
</defs>
<g class="currentLayer" style=""><title>Layer 1</title><g filter="url(#filter0_d)" id="svg_1" class="">
<rect x="0" y="0" width="25" height="24" rx="12" fill="white" id="svg_2"/>
<path d="M6.455999374389648,18.192049980163574 C6.3600006103515625,18.192049980163574 6.290700912475586,18.186650276184082 6.24799919128418,18.17604923248291 C6.205299377441406,18.17604923248291 6.141300201416016,18.165349006652832 6.055999755859375,18.144049644470215 L5.944000244140625,17.104050636291504 C6.125299453735352,17.104050636291504 6.258699417114258,17.056050300598145 6.343999862670898,16.960049629211426 C6.440000534057617,16.864048957824707 6.488000869750977,16.688050270080566 6.488000869750977,16.43204975128174 V7.792050361633301 H7.959999084472656 C8.450700759887695,8.890650749206543 8.930700302124023,9.984049797058105 9.399999618530273,11.072049140930176 C9.869300842285156,12.160050392150879 10.33329963684082,13.258650779724121 10.791999816894531,14.368050575256348 L11.704000473022461,16.43204975128174 H11.767999649047852 C11.725299835205078,15.930649757385254 11.693300247192383,15.472050666809082 11.672000885009766,15.056050300598145 C11.650699615478516,14.640049934387207 11.62929916381836,14.250649452209473 11.607999801635742,13.888049125671387 C11.597299575805664,13.514649391174316 11.586700439453125,13.157349586486816 11.576000213623047,12.81605052947998 C11.576000213623047,12.464049339294434 11.576000213623047,12.096049308776855 11.576000213623047,11.712050437927246 V9.184050559997559 C11.576000213623047,8.650649070739746 11.672000885009766,8.256049156188965 11.86400032043457,8.00005054473877 C12.066699981689453,7.733349800109863 12.386699676513672,7.600049018859863 12.823999404907227,7.600049018859863 C12.909299850463867,7.600049018859863 12.97330093383789,7.605349540710449 13.016000747680664,7.616049766540527 C13.069299697875977,7.626648902893066 13.138700485229492,7.6426496505737305 13.224000930786133,7.664050102233887 L13.336000442504883,8.704049110412598 C13.154699325561523,8.704049110412598 13.016000747680664,8.752049446105957 12.920000076293945,8.848050117492676 C12.823999404907227,8.933350563049316 12.775999069213867,9.104050636291504 12.775999069213867,9.3600492477417 V18.00005054473877 H11.304000854492188 C10.823999404907227,16.90134906768799 10.349300384521484,15.808049201965332 9.879999160766602,14.720049858093262 C9.410699844360352,13.632050514221191 8.941299438476562,12.528050422668457 8.472000122070312,11.408049583435059 L7.576000213623047,9.3600492477417 H7.511999130249023 C7.55470085144043,9.861350059509277 7.586700439453125,10.320050239562988 7.607999801635742,10.736050605773926 C7.629299163818359,11.15204906463623 7.645299911499023,11.546648979187012 7.656000137329102,11.920050621032715 C7.66670036315918,12.282649040222168 7.672000885009766,12.640049934387207 7.672000885009766,12.992049217224121 C7.682699203491211,13.33335018157959 7.687999725341797,13.696049690246582 7.687999725341797,14.080050468444824 V16.624049186706543 C7.687999725341797,17.14664936065674 7.591999053955078,17.54135036468506 7.399999618530273,17.808049201965332 C7.208000183105469,18.06404972076416 6.893299102783203,18.192049980163574 6.455999374389648,18.192049980163574 zM16.615999221801758,13.584050178527832 C16.274700164794922,13.584050178527832 15.954700469970703,13.525349617004395 15.656000137329102,13.408049583435059 C15.3572998046875,13.290650367736816 15.096000671386719,13.125349998474121 14.871999740600586,12.912049293518066 C14.648000717163086,12.688050270080566 14.472000122070312,12.416049003601074 14.343999862670898,12.096049308776855 C14.215999603271484,11.776049613952637 14.152000427246094,11.413350105285645 14.152000427246094,11.008049964904785 C14.152000427246094,10.592049598693848 14.215999603271484,10.22404956817627 14.343999862670898,9.90404987335205 C14.472000122070312,9.584050178527832 14.648000717163086,9.317349433898926 14.871999740600586,9.104050636291504 C15.096000671386719,8.880049705505371 15.3572998046875,8.71465015411377 15.656000137329102,8.608050346374512 C15.954700469970703,8.490649223327637 16.274700164794922,8.432049751281738 16.615999221801758,8.432049751281738 C16.946699142456055,8.432049751281738 17.26129913330078,8.490649223327637 17.559999465942383,8.608050346374512 C17.858699798583984,8.71465015411377 18.1200008392334,8.880049705505371 18.3439998626709,9.104050636291504 C18.56800079345703,9.317349433898926 18.743999481201172,9.584050178527832 18.871999740600586,9.90404987335205 C19,10.22404956817627 19.06399917602539,10.592049598693848 19.06399917602539,11.008049964904785 C19.06399917602539,11.413350105285645 19,11.776049613952637 18.871999740600586,12.096049308776855 C18.743999481201172,12.416049003601074 18.56800079345703,12.688050270080566 18.3439998626709,12.912049293518066 C18.1200008392334,13.125349998474121 17.858699798583984,13.290650367736816 17.559999465942383,13.408049583435059 C17.26129913330078,13.525349617004395 16.946699142456055,13.584050178527832 16.615999221801758,13.584050178527832 zM16.615999221801758,12.704049110412598 C17.031999588012695,12.704049110412598 17.362699508666992,12.55465030670166 17.607999801635742,12.256049156188965 C17.86400032043457,11.957350730895996 17.992000579833984,11.541350364685059 17.992000579833984,11.008049964904785 C17.992000579833984,10.464049339294434 17.86400032043457,10.042649269104004 17.607999801635742,9.744050025939941 C17.362699508666992,9.44534969329834 17.031999588012695,9.296050071716309 16.615999221801758,9.296050071716309 C16.200000762939453,9.296050071716309 15.86400032043457,9.44534969329834 15.607999801635742,9.744050025939941 C15.362699508666992,10.042649269104004 15.239999771118164,10.464049339294434 15.239999771118164,11.008049964904785 C15.239999771118164,11.541350364685059 15.362699508666992,11.957350730895996 15.607999801635742,12.256049156188965 C15.86400032043457,12.55465030670166 16.200000762939453,12.704049110412598 16.615999221801758,12.704049110412598 zM14.583999633789062,15.600049018859863 V14.800049781799316 H18.631999969482422 V15.600049018859863 H14.583999633789062 z" fill="#767D86" id="svg_3"/>
</g></g></svg>